<?xml version="1.0" encoding="UTF-8"?>
<!DOCTYPE svg  PUBLIC '-//W3C//DTD SVG 1.1//EN'  'http://www.w3.org/Graphics/SVG/1.1/DTD/svg11.dtd'>
<svg clip-rule="evenodd" fill-rule="evenodd" stroke-linejoin="round" stroke-miterlimit="2" version="1.1" viewBox="0 0 6838 1400" xml:space="preserve" xmlns="http://www.w3.org/2000/svg"><g fill="#fff"><path d="m108.33 1400 645.83-645.83 645.83 645.83h-1291.7z"/><path d="m0 1400v-633.33l766.67-766.67h633.33l-1400 1400z"/><path d="m0 658.33v-658.33h658.33l-658.33 658.33"/></g><path d="m1753.5 203.42h176.75v420.84h8.416l411.02-420.84h238.47l-464.32 458.71 495.18 534.46h-248.29l-430.66-488.17h-9.819v488.17h-176.75v-993.17z" fill="#fff" fill-rule="nonzero"/><path d="m2714.4 203.42h657.9v159.92h-481.15v244.08h455.9v159.92h-455.9v269.33h506.4v159.92h-683.16v-993.17z" fill="#fff" fill-rule="nonzero"/><rect x="3567.3" y="203.42" width="176.75" height="993.17" fill="#fff" fill-rule="nonzero"/><path d="m4448.2 416.64c-18.704-27.121-43.72-46.994-75.049-59.619s-64.294-18.937-98.896-18.937c-20.575-0-40.447 2.338-59.619 7.014-19.171 4.676-36.472 12.157-51.903 22.444-15.43 10.287-27.822 23.614-37.174 39.98-9.351 16.365-14.027 35.771-14.027 58.215-0 33.667 11.689 59.385 35.069 77.153 23.38 17.769 52.371 33.199 86.973 46.292s72.477 25.718 113.62 37.875c41.149 12.158 79.024 28.991 113.63 50.5 34.602 21.51 63.593 50.033 86.972 85.57 23.38 35.537 35.07 82.765 35.07 141.68-0 53.306-9.82 99.832-29.458 139.58-19.639 39.746-46.059 72.711-79.258 98.897-33.199 26.185-71.776 45.824-115.73 58.917-43.954 13.092-90.246 19.639-138.88 19.639-61.723-0-121.11-10.287-178.15-30.862-57.046-20.574-106.14-55.176-147.29-103.81l133.26-129.06c21.509 32.732 49.798 58.216 84.868 76.452s72.243 27.354 111.52 27.354c20.574 0 41.149-2.805 61.723-8.416 20.574-5.612 39.278-14.028 56.111-25.251 16.834-11.222 30.394-25.483 40.681-42.784s15.43-37.174 15.43-59.619c0-36.472-11.689-64.528-35.069-84.167s-52.371-36.238-86.973-49.799c-34.602-13.56-72.477-26.419-113.62-38.576-41.149-12.158-79.024-28.757-113.63-49.799s-63.593-49.097-86.972-84.167c-23.38-35.07-35.07-82.063-35.07-140.98 0-51.435 10.521-95.857 31.563-133.26 21.041-37.408 48.63-68.503 82.764-93.285 34.134-24.783 73.179-43.253 117.13-55.41 43.954-12.158 88.843-18.237 134.67-18.237 52.37 0 103.1 7.95 152.2 23.848 49.097 15.898 93.285 42.083 132.56 78.556l-129.06 136.07z" fill="#fff" fill-rule="nonzero"/><path d="m5087.9 203.42h152.9l427.85 993.17h-202l-92.584-227.25h-430.66l-89.778 227.25h-197.79l432.06-993.17zm224.45 614.42-152.9-404-155.71 404h308.61z" fill="#fff" fill-rule="nonzero"/><path d="m5779.5 203.42h345.08c47.695-0 93.753 4.442 138.18 13.326 44.421 8.884 83.933 24.081 118.54 45.59 34.602 21.51 62.19 50.501 82.764 86.973s30.861 82.764 30.861 138.88c0 72.009-19.872 132.33-59.618 180.96-39.745 48.63-96.558 78.088-170.44 88.375l263.72 439.07h-213.22l-230.06-420.84h-129.06v420.84h-176.75v-993.17zm314.22 420.84c25.25-0 50.5-1.169 75.751-3.507 25.25-2.338 48.396-7.949 69.437-16.834 21.042-8.884 38.109-22.444 51.202-40.68 13.093-18.237 19.639-43.721 19.639-76.452-0-28.991-6.079-52.371-18.236-70.139-12.158-17.769-28.056-31.095-47.695-39.98-19.639-8.884-41.382-14.729-65.229-17.534-23.848-2.806-46.994-4.209-69.438-4.209h-152.9v269.34h137.47z" fill="#fff" fill-rule="nonzero"/><rect x="6659" y="203.42" width="176.75" height="993.17" fill="#fff" fill-rule="nonzero"/></svg>
