<?xml version="1.0" encoding="UTF-8"?>
<!DOCTYPE svg  PUBLIC '-//W3C//DTD SVG 1.1//EN'  'http://www.w3.org/Graphics/SVG/1.1/DTD/svg11.dtd'>
<svg clip-rule="evenodd" fill-rule="evenodd" stroke-linejoin="round" stroke-miterlimit="2" version="1.1" viewBox="0 0 9167 1400" xml:space="preserve" xmlns="http://www.w3.org/2000/svg"><g fill="#fff"><path d="m108.33 1400 645.83-645.83 645.83 645.83h-1291.7z"/><path d="m0 1400v-633.33l766.67-766.67h633.33l-1400 1400z"/><path d="m0 658.33v-658.33h658.33l-658.33 658.33"/></g><path d="m7185.8 394.37h249.61c69.906 0 129.17 8.549 177.8 25.645 48.63 17.097 89.092 38.942 121.38 65.536 32.293 26.595 57.748 56.039 76.364 88.332s32.293 63.257 41.031 92.891c8.738 29.633 14.247 56.418 16.527 80.353 2.279 23.935 3.419 40.841 3.419 50.719s-1.14 26.785-3.419 50.72c-2.28 23.935-7.789 50.719-16.527 80.353s-22.415 60.597-41.031 92.89c-18.616 32.294-44.071 61.737-76.364 88.332-32.293 26.594-72.755 48.44-121.38 65.536-48.63 17.097-107.9 25.645-177.8 25.645h-249.61v-806.95zm75.225 738.57h155.01c53.189 0 102.96-6.648 149.31-19.946 46.351-13.297 86.622-33.623 120.82-60.977s61.167-62.117 80.923-104.29 29.634-92.131 29.634-149.88-9.878-107.71-29.634-149.88c-19.756-42.171-46.73-76.933-80.923-104.29-34.193-27.354-74.464-47.68-120.82-60.977-46.35-13.297-96.12-19.946-149.31-19.946h-155.01v670.18z" fill="#fff" fill-rule="nonzero"/><path d="m8062.2 1052c19.756 34.193 45.401 59.648 76.934 76.364 31.534 16.717 67.436 25.075 107.71 25.075 25.075-0 48.63-3.799 70.665-11.398 22.035-7.598 41.221-18.236 57.558-31.913s29.254-30.204 38.752-49.58 14.247-41.221 14.247-65.536c-0-28.114-5.889-51.289-17.666-69.525-11.778-18.237-27.545-33.244-47.3-45.021-19.756-11.778-41.982-21.846-66.677-30.204-24.694-8.358-50.149-16.716-76.364-25.075-26.214-8.358-51.669-17.856-76.364-28.494-24.694-10.637-46.92-24.504-66.676-41.601-19.756-17.096-35.522-38.562-47.3-64.396-11.777-25.835-17.666-57.748-17.666-95.74-0-35.713 7.028-67.436 21.085-95.171 14.058-27.734 33.054-50.909 56.989-69.525s51.479-32.673 82.632-42.171c31.154-9.498 63.827-14.247 98.02-14.247 44.071-0 84.912 7.788 122.52 23.365s70.096 41.601 97.45 78.074l-64.967 46.73c-18.996-26.595-41.221-46.54-66.676-59.838-25.454-13.297-55.658-19.946-90.611-19.946-24.315 0-47.49 3.23-69.525 9.688-22.036 6.459-41.222 15.957-57.558 28.494-16.337 12.538-29.444 28.305-39.322 47.301s-14.817 41.411-14.817 67.246c0 40.271 10.258 71.235 30.774 92.89 20.515 21.656 46.16 38.752 76.934 51.289 30.773 12.538 64.206 23.556 100.3 33.054 36.092 9.498 69.525 22.225 100.3 38.182 30.773 15.956 56.418 38.182 76.934 66.676 20.515 28.494 30.773 67.815 30.773 117.96 0 36.472-6.838 68.766-20.515 96.88-13.678 28.114-32.104 51.859-55.279 71.235s-49.959 34.003-80.353 43.881-61.927 14.817-94.6 14.817c-53.189-0-102.2-9.308-147.03-27.925-44.83-18.616-83.202-49.959-115.12-94.03l71.805-47.87z" fill="#fff" fill-rule="nonzero"/><path d="m8674.3 394.37h232.51c28.114 0 57.558 3.23 88.331 9.688 30.774 6.459 58.888 17.667 84.343 33.623 25.455 15.957 46.35 37.803 62.687 65.537 16.336 27.734 24.505 62.497 24.505 104.29-0 36.472-6.649 68.006-19.946 94.6-13.297 26.595-31.154 48.44-53.569 65.536-22.415 17.097-48.25 29.824-77.504 38.183-29.254 8.358-59.837 12.537-91.751 12.537h-174.38v382.96h-75.224v-806.95zm75.224 355.61h170.96c21.276 0 42.171-2.469 62.687-7.408s38.752-12.918 54.709-23.935c15.956-11.018 28.874-25.645 38.751-43.881 9.878-18.236 14.817-40.652 14.817-67.246 0-25.835-5.129-47.87-15.386-66.106-10.258-18.236-23.555-33.243-39.892-45.021-16.337-11.777-35.143-20.326-56.418-25.644-21.276-5.319-42.551-7.979-63.827-7.979h-166.4v287.22z" fill="#fff" fill-rule="nonzero"/><path d="m1753.5 203.42h176.75v420.84h8.416l411.02-420.84h238.47l-464.32 458.71 495.18 534.46h-248.29l-430.66-488.17h-9.819v488.17h-176.75v-993.17z" fill="#fff" fill-rule="nonzero"/><path d="m2714.4 203.42h657.9v159.92h-481.15v244.08h455.9v159.92h-455.9v269.33h506.4v159.92h-683.16v-993.17z" fill="#fff" fill-rule="nonzero"/><rect x="3567.3" y="203.42" width="176.75" height="993.17" fill="#fff" fill-rule="nonzero"/><path d="m4448.2 416.64c-18.704-27.121-43.72-46.994-75.049-59.619s-64.294-18.937-98.896-18.937c-20.575-0-40.447 2.338-59.619 7.014-19.171 4.676-36.472 12.157-51.903 22.444-15.43 10.287-27.822 23.614-37.174 39.98-9.351 16.365-14.027 35.771-14.027 58.215-0 33.667 11.689 59.385 35.069 77.153 23.38 17.769 52.371 33.199 86.973 46.292s72.477 25.718 113.62 37.875c41.149 12.158 79.024 28.991 113.63 50.5 34.602 21.51 63.593 50.033 86.972 85.57 23.38 35.537 35.07 82.765 35.07 141.68-0 53.306-9.82 99.832-29.458 139.58-19.639 39.746-46.059 72.711-79.258 98.897-33.199 26.185-71.776 45.824-115.73 58.917-43.954 13.092-90.246 19.639-138.88 19.639-61.723-0-121.11-10.287-178.15-30.862-57.046-20.574-106.14-55.176-147.29-103.81l133.26-129.06c21.509 32.732 49.798 58.216 84.868 76.452s72.243 27.354 111.52 27.354c20.574 0 41.149-2.805 61.723-8.416 20.574-5.612 39.278-14.028 56.111-25.251 16.834-11.222 30.394-25.483 40.681-42.784s15.43-37.174 15.43-59.619c0-36.472-11.689-64.528-35.069-84.167s-52.371-36.238-86.973-49.799c-34.602-13.56-72.477-26.419-113.62-38.576-41.149-12.158-79.024-28.757-113.63-49.799s-63.593-49.097-86.972-84.167c-23.38-35.07-35.07-82.063-35.07-140.98 0-51.435 10.521-95.857 31.563-133.26 21.041-37.408 48.63-68.503 82.764-93.285 34.134-24.783 73.179-43.253 117.13-55.41 43.954-12.158 88.843-18.237 134.67-18.237 52.37 0 103.1 7.95 152.2 23.848 49.097 15.898 93.285 42.083 132.56 78.556l-129.06 136.07z" fill="#fff" fill-rule="nonzero"/><path d="m5087.9 203.42h152.9l427.85 993.17h-202l-92.584-227.25h-430.66l-89.778 227.25h-197.79l432.06-993.17zm224.45 614.42-152.9-404-155.71 404h308.61z" fill="#fff" fill-rule="nonzero"/><path d="m5779.5 203.42h345.08c47.695-0 93.753 4.442 138.18 13.326 44.421 8.884 83.933 24.081 118.54 45.59 34.602 21.51 62.19 50.501 82.764 86.973s30.861 82.764 30.861 138.88c0 72.009-19.872 132.33-59.618 180.96-39.745 48.63-96.558 78.088-170.44 88.375l263.72 439.07h-213.22l-230.06-420.84h-129.06v420.84h-176.75v-993.17zm314.22 420.84c25.25-0 50.5-1.169 75.751-3.507 25.25-2.338 48.396-7.949 69.437-16.834 21.042-8.884 38.109-22.444 51.202-40.68 13.093-18.237 19.639-43.721 19.639-76.452-0-28.991-6.079-52.371-18.236-70.139-12.158-17.769-28.056-31.095-47.695-39.98-19.639-8.884-41.382-14.729-65.229-17.534-23.848-2.806-46.994-4.209-69.438-4.209h-152.9v269.34h137.47z" fill="#fff" fill-rule="nonzero"/><rect x="6659" y="203.42" width="176.75" height="993.17" fill="#fff" fill-rule="nonzero"/></svg>
