<?xml version="1.0" encoding="UTF-8"?>
<!DOCTYPE svg  PUBLIC '-//W3C//DTD SVG 1.1//EN'  'http://www.w3.org/Graphics/SVG/1.1/DTD/svg11.dtd'>
<svg clip-rule="evenodd" fill-rule="evenodd" stroke-linejoin="round" stroke-miterlimit="2" version="1.1" viewBox="0 0 10584 1400" xml:space="preserve" xmlns="http://www.w3.org/2000/svg"><g fill="#fff"><path d="m108.33 1400 645.83-645.83 645.83 645.83h-1291.7z"/><path d="m0 1400v-633.33l766.67-766.67h633.33l-1400 1400z"/><path d="m0 658.33v-658.33h658.33l-658.33 658.33"/></g><path d="m7188 394.37h112.84l294.06 677.02 294.06-677.02h107.14v806.95h-75.224v-711.21h-2.28l-307.74 711.21h-33.053l-312.3-711.21h-2.28v711.21h-75.224v-806.95z" fill="#fff" fill-rule="nonzero"/><path d="m8782.6 892.44c-0 43.311-4.939 84.723-14.817 124.23-9.878 39.512-26.404 74.465-49.58 104.86-23.175 30.393-53.568 54.708-91.181 72.944-37.612 18.237-83.772 27.355-138.48 27.355-54.708-0-100.87-9.118-138.48-27.355-37.612-18.236-68.006-42.551-91.181-72.944-23.175-30.394-39.701-65.347-49.579-104.86-9.878-39.511-14.817-80.923-14.817-124.23v-498.08h75.224v478.7c0 28.874 2.659 59.648 7.978 92.321s15.767 63.067 31.344 91.181 37.612 51.289 66.106 69.526c28.494 18.236 66.296 27.354 113.41 27.354s84.913-9.118 113.41-27.354c28.494-18.237 50.529-41.412 66.106-69.526s26.024-58.508 31.343-91.181 7.979-63.447 7.979-92.321v-478.7h75.224v498.08z" fill="#fff" fill-rule="nonzero"/><path d="m9010.5 1052c19.756 34.193 45.401 59.648 76.934 76.364 31.534 16.717 67.436 25.075 107.71 25.075 25.074-0 48.63-3.799 70.665-11.398 22.035-7.598 41.221-18.236 57.558-31.913s29.254-30.204 38.752-49.58 14.247-41.221 14.247-65.536c-0-28.114-5.889-51.289-17.666-69.525-11.778-18.237-27.545-33.244-47.301-45.021-19.755-11.778-41.981-21.846-66.676-30.204-24.694-8.358-50.149-16.716-76.364-25.075-26.214-8.358-51.669-17.856-76.364-28.494-24.695-10.637-46.92-24.504-66.676-41.601-19.756-17.096-35.522-38.562-47.3-64.396-11.777-25.835-17.666-57.748-17.666-95.74-0-35.713 7.028-67.436 21.085-95.171 14.057-27.734 33.053-50.909 56.988-69.525s51.48-32.673 82.633-42.171c31.154-9.498 63.827-14.247 98.02-14.247 44.071-0 84.912 7.788 122.52 23.365s70.095 41.601 97.45 78.074l-64.967 46.73c-18.996-26.595-41.221-46.54-66.676-59.838-25.454-13.297-55.658-19.946-90.611-19.946-24.315 0-47.49 3.23-69.525 9.688-22.036 6.459-41.222 15.957-57.558 28.494-16.337 12.538-29.444 28.305-39.322 47.301s-14.817 41.411-14.817 67.246c0 40.271 10.258 71.235 30.774 92.89 20.515 21.656 46.16 38.752 76.934 51.289 30.773 12.538 64.206 23.556 100.3 33.054 36.092 9.498 69.525 22.225 100.3 38.182 30.773 15.956 56.418 38.182 76.934 66.676 20.515 28.494 30.773 67.815 30.773 117.96 0 36.472-6.838 68.766-20.516 96.88-13.677 28.114-32.103 51.859-55.278 71.235s-49.96 34.003-80.353 43.881c-30.394 9.878-61.927 14.817-94.6 14.817-53.189-0-102.2-9.308-147.03-27.925-44.83-18.616-83.202-49.959-115.12-94.03l71.805-47.87z" fill="#fff" fill-rule="nonzero"/><rect x="9622.6" y="394.37" width="75.224" height="806.95" fill="#fff" fill-rule="nonzero"/><path d="m10583 1074.8c-38.752 52.429-83.583 90.042-134.49 112.84-50.91 22.795-106 34.193-165.27 34.193-61.547-0-117.96-10.448-169.25-31.344-51.29-20.895-95.17-50.149-131.64-87.762-36.472-37.612-64.966-82.442-85.482-134.49-20.516-52.05-30.774-108.85-30.774-170.4s10.258-118.16 30.774-169.82c20.516-51.67 49.01-96.31 85.482-133.92 36.473-37.613 80.353-67.056 131.64-88.332 51.289-21.275 107.71-31.913 169.25-31.913 54.709-0 105.81 9.688 153.3 29.064s89.092 51.859 124.8 97.449l-61.547 51.29c-25.075-37.992-57.178-65.727-96.31-83.203s-79.213-26.215-120.24-26.215c-52.429 0-99.729 9.119-141.9 27.355s-78.074 43.311-107.71 75.224c-29.633 31.913-52.429 69.526-68.385 112.84-15.957 43.311-23.935 90.042-23.935 140.19-0 50.15 7.978 96.88 23.935 140.19 15.956 43.311 38.752 80.923 68.385 112.84 29.634 31.914 65.537 56.988 107.71 75.225 42.171 18.236 89.471 27.354 141.9 27.354 20.516-0 41.792-2.47 63.827-7.409s43.501-12.537 64.397-22.795c20.895-10.258 40.841-23.175 59.837-38.752 18.996-15.576 35.713-34.383 50.15-56.418l61.547 46.73z" fill="#fff" fill-rule="nonzero"/><path d="m1753.5 203.42h176.75v420.84h8.416l411.02-420.84h238.47l-464.32 458.71 495.18 534.46h-248.29l-430.66-488.17h-9.819v488.17h-176.75v-993.17z" fill="#fff" fill-rule="nonzero"/><path d="m2714.4 203.42h657.9v159.92h-481.15v244.08h455.9v159.92h-455.9v269.33h506.4v159.92h-683.16v-993.17z" fill="#fff" fill-rule="nonzero"/><rect x="3567.3" y="203.42" width="176.75" height="993.17" fill="#fff" fill-rule="nonzero"/><path d="m4448.2 416.64c-18.704-27.121-43.72-46.994-75.049-59.619s-64.294-18.937-98.896-18.937c-20.575-0-40.447 2.338-59.619 7.014-19.171 4.676-36.472 12.157-51.903 22.444-15.43 10.287-27.822 23.614-37.174 39.98-9.351 16.365-14.027 35.771-14.027 58.215-0 33.667 11.689 59.385 35.069 77.153 23.38 17.769 52.371 33.199 86.973 46.292s72.477 25.718 113.62 37.875c41.149 12.158 79.024 28.991 113.63 50.5 34.602 21.51 63.593 50.033 86.972 85.57 23.38 35.537 35.07 82.765 35.07 141.68-0 53.306-9.82 99.832-29.458 139.58-19.639 39.746-46.059 72.711-79.258 98.897-33.199 26.185-71.776 45.824-115.73 58.917-43.954 13.092-90.246 19.639-138.88 19.639-61.723-0-121.11-10.287-178.15-30.862-57.046-20.574-106.14-55.176-147.29-103.81l133.26-129.06c21.509 32.732 49.798 58.216 84.868 76.452s72.243 27.354 111.52 27.354c20.574 0 41.149-2.805 61.723-8.416 20.574-5.612 39.278-14.028 56.111-25.251 16.834-11.222 30.394-25.483 40.681-42.784s15.43-37.174 15.43-59.619c0-36.472-11.689-64.528-35.069-84.167s-52.371-36.238-86.973-49.799c-34.602-13.56-72.477-26.419-113.62-38.576-41.149-12.158-79.024-28.757-113.63-49.799s-63.593-49.097-86.972-84.167c-23.38-35.07-35.07-82.063-35.07-140.98 0-51.435 10.521-95.857 31.563-133.26 21.041-37.408 48.63-68.503 82.764-93.285 34.134-24.783 73.179-43.253 117.13-55.41 43.954-12.158 88.843-18.237 134.67-18.237 52.37 0 103.1 7.95 152.2 23.848 49.097 15.898 93.285 42.083 132.56 78.556l-129.06 136.07z" fill="#fff" fill-rule="nonzero"/><path d="m5087.9 203.42h152.9l427.85 993.17h-202l-92.584-227.25h-430.66l-89.778 227.25h-197.79l432.06-993.17zm224.45 614.42-152.9-404-155.71 404h308.61z" fill="#fff" fill-rule="nonzero"/><path d="m5779.5 203.42h345.08c47.695-0 93.753 4.442 138.18 13.326 44.421 8.884 83.933 24.081 118.54 45.59 34.602 21.51 62.19 50.501 82.764 86.973s30.861 82.764 30.861 138.88c0 72.009-19.872 132.33-59.618 180.96-39.745 48.63-96.558 78.088-170.44 88.375l263.72 439.07h-213.22l-230.06-420.84h-129.06v420.84h-176.75v-993.17zm314.22 420.84c25.25-0 50.5-1.169 75.751-3.507 25.25-2.338 48.396-7.949 69.437-16.834 21.042-8.884 38.109-22.444 51.202-40.68 13.093-18.237 19.639-43.721 19.639-76.452-0-28.991-6.079-52.371-18.236-70.139-12.158-17.769-28.056-31.095-47.695-39.98-19.639-8.884-41.382-14.729-65.229-17.534-23.848-2.806-46.994-4.209-69.438-4.209h-152.9v269.34h137.47z" fill="#fff" fill-rule="nonzero"/><rect x="6659" y="203.42" width="176.75" height="993.17" fill="#fff" fill-rule="nonzero"/></svg>
