<?xml version="1.0" encoding="UTF-8"?>
<!DOCTYPE svg  PUBLIC '-//W3C//DTD SVG 1.1//EN'  'http://www.w3.org/Graphics/SVG/1.1/DTD/svg11.dtd'>
<svg clip-rule="evenodd" fill-rule="evenodd" stroke-linejoin="round" stroke-miterlimit="2" version="1.1" viewBox="0 0 8255 3334" xml:space="preserve" xmlns="http://www.w3.org/2000/svg"><g fill="#fff"><path d="m4097 2056.7c-45.638-67-112.15-100.5-199.54-100.5-27.189 0-53.892 3.642-80.11 10.924-26.217 7.283-49.764 18.45-70.641 33.501-20.877 15.05-37.628 34.471-50.251 58.261s-18.935 51.707-18.935 83.751c0 46.609 13.109 82.779 39.327 108.51 26.217 25.732 58.746 46.851 97.587 63.359 38.841 16.507 81.324 31.315 127.45 44.424 46.124 13.109 88.606 30.587 127.45 52.435s71.37 50.736 97.588 86.664 39.326 84.965 39.326 147.11c0 46.609-9.953 88.606-29.859 125.99-19.906 37.384-46.123 68.699-78.653 93.946-32.529 25.247-68.942 44.667-109.24 58.262-40.297 13.594-80.837 20.391-121.62 20.391-63.117-0-123.08-11.895-179.88-35.685-56.805-23.79-105.11-62.874-144.93-117.25l94.675-68.457c22.334 37.87 53.406 68.214 93.218 91.033s86.907 34.229 141.28 34.229c26.218-0 52.436-4.127 78.653-12.381 26.218-8.254 49.765-20.391 70.642-36.413s38.113-35.685 51.707-58.99c13.594-23.304 20.392-50.008 20.392-80.109-0-35.928-7.526-65.787-22.577-89.577s-34.957-43.696-59.718-59.718-52.92-29.374-84.479-40.055c-31.558-10.681-64.087-21.362-97.588-32.044-33.5-10.681-66.029-22.819-97.587-36.413-31.559-13.594-59.718-30.83-84.479-51.707-24.762-20.877-44.667-47.095-59.718-78.653s-22.577-71.127-22.577-118.71c0-49.522 9.468-92.732 28.403-129.63s44.181-67.486 75.74-91.762c31.558-24.275 67.243-42.239 107.06-53.892 39.812-11.652 80.595-17.478 122.35-17.478 58.261-0 111.18 9.225 158.76 27.674s91.762 50.979 132.54 97.588l-91.762 71.37z" fill-rule="nonzero"/><path d="m4736.4 2323.3h-196.63v402c-0 25.246 2.427 45.881 7.283 61.902 4.855 16.022 11.652 28.403 20.391 37.142s19.178 14.808 31.316 18.207c12.137 3.398 25.489 5.098 40.054 5.098 16.508-0 33.501-2.428 50.979-7.283s33.5-11.167 48.066-18.935l4.369 88.849c-35.928 16.507-79.138 24.761-129.63 24.761-18.45-0-37.628-2.428-57.534-7.283-19.905-4.855-38.112-14.08-54.62-27.674-16.507-13.594-30.101-32.044-40.783-55.348-10.681-23.305-16.021-53.892-16.021-91.762v-429.68h-144.2v-87.392h144.2v-192.26h96.131v192.26h196.63v87.392z" fill-rule="nonzero"/><path d="m5359.8 2917.5c-1.942-18.449-3.156-36.656-3.641-54.62-0.486-17.964-0.728-36.17-0.728-54.62h-2.914c-10.681 18.45-24.275 35.443-40.783 50.979-16.507 15.536-34.956 28.888-55.348 40.055-20.391 11.166-41.997 19.906-64.816 26.217-22.819 6.312-45.395 9.468-67.729 9.468-87.392-0-151.96-23.062-193.72-69.186-41.754-46.123-62.631-111.91-62.631-197.36v-432.59h96.132v377.24c-0 37.869 2.913 71.37 8.739 100.5 5.826 29.131 15.779 53.649 29.859 73.555s33.015 34.957 56.805 45.153 53.649 15.294 89.577 15.294c4.855-0 18.449-1.942 40.783-5.826 22.333-3.885 45.88-14.566 70.641-32.044 24.762-17.479 46.852-43.696 66.273-78.653 19.42-34.957 29.131-83.508 29.131-145.65v-349.57h96.131v531.64c-0 18.45 0.728 41.754 2.185 69.914 1.456 28.16 3.155 54.863 5.098 80.109h-99.045z" fill-rule="nonzero"/><path d="m5735.6 2576.7c0 37.87 6.069 73.312 18.207 106.33s29.373 61.66 51.707 85.936c22.333 24.275 49.279 43.453 80.838 57.533 31.558 14.08 67.243 21.12 107.06 21.12 38.841-0 75.011-7.04 108.51-21.12 33.5-14.08 62.388-33.258 86.664-57.533 24.275-24.276 43.21-52.921 56.804-85.936 13.595-33.015 20.392-68.457 20.392-106.33s-6.797-73.312-20.392-106.33c-13.594-33.015-32.529-61.66-56.804-85.935-24.276-24.276-53.164-43.454-86.664-57.534-33.501-14.079-69.671-21.119-108.51-21.119-39.812-0-75.497 7.04-107.06 21.119-31.559 14.08-58.505 33.258-80.838 57.534-22.334 24.275-39.569 52.92-51.707 85.935s-18.207 68.457-18.207 106.33zm621.94 340.83h-96.132v-113.61h-2.913c-15.536 23.304-33.986 43.21-55.348 59.718-21.363 16.507-43.696 30.101-67.001 40.783-23.304 10.681-47.337 18.449-72.098 23.304s-48.309 7.283-70.642 7.283c-53.406-0-102.2-8.982-146.38-26.946-44.181-17.964-82.294-42.968-114.34-75.012-32.044-32.043-57.048-69.913-75.011-113.61-17.964-43.696-26.946-91.277-26.946-142.74s8.982-99.044 26.946-142.74c17.963-43.696 42.967-81.566 75.011-113.61s70.157-57.048 114.34-75.012c44.182-17.964 92.976-26.945 146.38-26.945 22.333-0 45.881 2.427 70.642 7.282s48.794 12.623 72.098 23.305c23.305 10.681 45.638 24.275 67.001 40.783 21.362 16.507 39.812 36.413 55.348 59.718h2.913v-533.09h96.132v1101.1z" fill-rule="nonzero"/><path d="m6707.1 1973.7c0 20.391-7.283 37.141-21.848 50.25s-30.587 19.663-48.066 19.663c-17.478 0-33.5-6.554-48.065-19.663-14.566-13.109-21.848-29.859-21.848-50.25-0-20.392 7.282-37.142 21.848-50.251 14.565-13.109 30.587-19.663 48.065-19.663 17.479-0 33.501 6.554 48.066 19.663s21.848 29.859 21.848 50.251zm-21.848 943.83h-96.131v-681.66h96.131v681.66z" fill-rule="nonzero"/><path d="m7501 2576.7c-0-37.87-6.069-73.312-18.207-106.33s-29.373-61.66-51.707-85.935c-22.333-24.276-49.279-43.454-80.838-57.534-31.558-14.079-67.243-21.119-107.06-21.119s-75.497 7.04-107.06 21.119c-31.559 14.08-58.262 33.258-80.11 57.534-21.848 24.275-38.841 52.92-50.978 85.935-12.138 33.015-18.207 68.457-18.207 106.33s6.069 73.312 18.207 106.33c12.137 33.015 29.13 61.66 50.978 85.936 21.848 24.275 48.551 43.453 80.11 57.533 31.558 14.08 67.243 21.12 107.06 21.12s75.497-7.04 107.06-21.12c31.559-14.08 58.505-33.258 80.838-57.533 22.334-24.276 39.569-52.921 51.707-85.936s18.207-68.457 18.207-106.33zm104.87 0c0 51.464-8.982 99.045-26.946 142.74s-42.967 81.566-75.011 113.61c-32.044 32.044-70.157 57.048-114.34 75.012-44.182 17.964-92.976 26.946-146.38 26.946-52.435-0-100.74-8.982-144.92-26.946-44.182-17.964-82.294-42.968-114.34-75.012-32.044-32.043-57.048-69.913-75.012-113.61s-26.946-91.277-26.946-142.74 8.982-99.044 26.946-142.74 42.968-81.566 75.012-113.61 70.156-57.048 114.34-75.012c44.181-17.964 92.49-26.945 144.92-26.945 53.406-0 102.2 8.981 146.38 26.945 44.181 17.964 82.294 42.968 114.34 75.012s57.047 69.914 75.011 113.61 26.946 91.276 26.946 142.74z" fill-rule="nonzero"/><path d="m8141.8 2397.6c-14.565-28.159-33.986-50.493-58.261-67-24.276-16.508-53.892-24.761-88.849-24.761-16.507-0-33.257 1.942-50.25 5.826s-32.287 9.953-45.881 18.206c-13.595 8.254-24.519 18.693-32.772 31.316-8.254 12.623-12.381 28.16-12.381 46.609 0 32.044 11.167 55.348 33.501 69.914 22.333 14.565 55.833 27.188 100.5 37.87l97.588 23.304c47.58 10.681 87.15 32.287 118.71 64.816s47.337 73.07 47.337 121.62c0 36.899-7.525 68.7-22.576 95.403s-34.957 48.551-59.718 65.544-53.163 29.373-85.207 37.142c-32.044 7.768-64.573 11.652-97.588 11.652-52.435-0-101.23-9.953-146.38-29.859-45.152-19.906-83.751-54.135-115.79-102.69l83.022-56.805c19.421 31.073 43.939 55.834 73.555 74.284 29.616 18.449 64.816 27.674 105.6 27.674 19.42-0 38.841-2.185 58.261-6.555 19.421-4.369 36.656-11.166 51.707-20.391s27.189-21.12 36.414-35.685c9.224-14.566 13.837-31.559 13.837-50.979-0-33.986-12.624-58.504-37.87-73.555-25.247-15.051-55.834-26.946-91.762-35.685l-93.218-21.848c-11.652-2.913-27.431-7.768-47.337-14.566-19.906-6.797-39.327-16.992-58.262-30.587-18.935-13.594-35.199-31.315-48.794-53.163-13.594-21.848-20.391-48.794-20.391-80.838-0-34.957 7.04-65.544 21.119-91.762 14.08-26.217 33.015-47.58 56.805-64.087 23.79-16.508 50.736-28.888 80.838-37.142s61.175-12.38 93.218-12.38c47.58-0 91.762 9.224 132.54 27.674 40.783 18.449 72.341 50.007 94.675 94.674l-85.936 56.805z" fill-rule="nonzero"/><path d="m4635.6 1246.8c0 32.611 7.101 62.328 21.302 89.153 14.201 26.824 32.873 49.704 56.016 68.639s49.967 33.662 80.473 44.181c30.507 10.52 62.065 15.779 94.675 15.779 44.182 0 82.578-10.256 115.19-30.769s62.59-47.6 89.941-81.262l107.3 82.051c-78.896 102.04-189.35 153.06-331.36 153.06-58.909-0-112.3-9.994-160.16-29.981s-88.363-47.6-121.5-82.84-58.646-76.792-76.529-124.66c-17.883-47.864-26.825-99.672-26.825-155.42s9.731-107.56 29.192-155.42 46.285-89.415 80.473-124.66 74.951-62.854 122.29-82.841c47.337-19.987 98.882-29.98 154.64-29.98 66.272 0 122.29 11.571 168.05 34.714 45.759 23.143 83.366 53.386 112.82 90.73 29.454 37.344 50.756 79.422 63.905 126.23 13.149 46.812 19.724 94.412 19.724 142.8v50.493h-599.61zm448.13-113.61c-1.052-31.559-6.048-60.487-14.99-86.785-8.941-26.299-22.354-49.179-40.237-68.64s-40.236-34.714-67.061-45.759c-26.824-11.046-58.12-16.568-93.886-16.568-34.714-0-66.535 6.574-95.463 19.724-28.929 13.149-53.387 30.243-73.373 51.282-19.987 21.039-35.503 44.444-46.549 70.217-11.045 25.773-16.568 51.282-16.568 76.529h448.13z" fill-rule="nonzero"/><path d="m5416.6 820.77h142.01v747.93h-142.01v-747.93zm-33.136-268.24c-0-28.403 10.256-52.86 30.769-73.373s44.971-30.77 73.373-30.77c28.403 0 52.86 10.257 73.373 30.77s30.769 44.97 30.769 73.373c0 28.402-10.256 52.86-30.769 73.373s-44.97 30.769-73.373 30.769c-28.402 0-52.86-10.256-73.373-30.769s-30.769-44.971-30.769-73.373z" fill-rule="nonzero"/><path d="m6181.9 1008.5c-16.831-21.039-37.607-38.659-62.328-52.86-24.72-14.202-54.964-21.302-90.73-21.302-33.662-0-62.853 7.1-87.574 21.302-24.721 14.201-37.081 34.977-37.081 62.327 0 22.091 7.101 39.974 21.302 53.649s31.032 24.721 50.493 33.136c19.461 8.416 40.237 14.727 62.328 18.935s41.025 7.89 56.805 11.046c30.506 7.363 59.171 16.305 85.996 26.824 26.824 10.52 49.967 24.195 69.428 41.026s34.714 37.344 45.76 61.539c11.045 24.194 16.568 53.649 16.568 88.363-0 42.077-8.942 78.106-26.825 108.09-17.883 29.98-41.026 54.438-69.428 73.373-28.403 18.935-60.75 32.61-97.042 41.025-36.292 8.416-72.847 12.624-109.66 12.624-62.064-0-116.5-9.468-163.31-28.403-46.811-18.935-88.626-53.649-125.44-104.14l107.3-88.363c23.143 23.143 48.916 43.655 77.318 61.538s63.117 26.825 104.14 26.825c17.883-0 36.029-1.841 54.438-5.523 18.409-3.681 34.714-9.467 48.916-17.357 14.201-7.889 25.772-17.883 34.714-29.98 8.941-12.097 13.412-26.036 13.412-41.815-0-21.039-6.575-38.396-19.724-52.071s-28.928-24.458-47.337-32.347c-18.409-7.89-37.87-14.201-58.383-18.935s-38.659-8.679-54.438-11.834c-30.506-7.364-59.435-15.78-86.785-25.247-27.351-9.468-51.546-22.091-72.584-37.87-21.039-15.779-37.87-35.766-50.494-59.961-12.623-24.194-18.935-54.175-18.935-89.941 0-38.922 8.153-72.847 24.458-101.78s37.87-52.86 64.695-71.795c26.824-18.935 57.33-33.136 91.519-42.604 34.188-9.467 68.639-14.201 103.35-14.201 50.493 0 98.882 9.467 145.17 28.402 46.285 18.935 83.103 50.494 110.45 94.675l-110.45 83.63z" fill-rule="nonzero"/><path d="m6488 912.29c39.974-36.818 86.259-64.432 138.86-82.841s105.19-27.613 157.79-27.613c54.701 0 101.78 6.838 141.22 20.513s71.795 32.084 97.041 55.227c25.247 23.143 43.919 49.704 56.016 79.684 12.098 29.981 18.146 61.276 18.146 93.886v381.86c0 26.299 0.526 50.493 1.578 72.584s2.63 43.13 4.734 63.117h-126.23c-3.156-37.87-4.734-75.74-4.734-113.61h-3.156c-31.558 48.389-68.902 82.577-112.03 102.56-43.13 19.987-93.097 29.981-149.9 29.981-34.714-0-67.85-4.734-99.409-14.202-31.558-9.467-59.171-23.668-82.84-42.603s-42.341-42.341-56.016-70.217c-13.675-27.877-20.513-60.224-20.513-97.042 0-48.389 10.783-88.889 32.347-121.5 21.565-32.61 51.02-59.172 88.363-79.685 37.344-20.513 81-35.24 130.97-44.181 49.967-8.942 103.35-13.413 160.16-13.413h104.14v-31.558c-0-18.935-3.682-37.87-11.046-56.805-7.363-18.935-18.409-36.029-33.136-51.282s-33.136-27.35-55.227-36.292-48.389-13.412-78.895-13.412c-27.351-0-51.283 2.63-71.796 7.889-20.512 5.26-39.184 11.835-56.015 19.724-16.832 7.89-32.085 17.094-45.76 27.614-13.675 10.519-26.824 20.513-39.448 29.98l-85.207-88.363zm400.79 296.65c-33.662-0-68.113 1.84-103.35 5.522-35.241 3.682-67.325 10.783-96.253 21.302-28.929 10.52-52.597 25.247-71.006 44.182s-27.614 43.129-27.614 72.584c0 43.129 14.465 74.162 43.393 93.097 28.928 18.934 68.113 28.402 117.55 28.402 38.922-0 72.058-6.575 99.409-19.724 27.35-13.149 49.441-30.243 66.272-51.282s28.929-44.445 36.292-70.217c7.364-25.773 11.046-51.282 11.046-76.529v-47.337h-75.74z" fill-rule="nonzero"/><path d="m7303.8 820.77h142.01v115.19h3.156c9.467-19.987 22.091-38.133 37.87-54.438s33.399-30.244 52.86-41.815 40.763-20.776 63.905-27.614c23.143-6.837 46.286-10.256 69.429-10.256 23.142 0 44.181 3.156 63.116 9.467l-6.311 153.06c-11.572-3.156-23.143-5.786-34.715-7.89-11.571-2.103-23.142-3.155-34.714-3.155-69.428-0-122.55 19.461-159.37 58.382-36.818 38.922-55.227 99.409-55.227 181.46v375.54h-142.01v-747.93z" fill-rule="nonzero"/><path d="m7898.7 820.77h142.01v747.93h-142.01v-747.93zm-33.136-268.24c0-28.403 10.256-52.86 30.769-73.373s44.971-30.77 73.373-30.77c28.403 0 52.86 10.257 73.373 30.77s30.77 44.97 30.77 73.373c-0 28.402-10.257 52.86-30.77 73.373s-44.97 30.769-73.373 30.769c-28.402 0-52.86-10.256-73.373-30.769s-30.769-44.971-30.769-73.373z" fill-rule="nonzero"/><rect x="3542.1" y="443.75" width="150.27" height="1123.7"/><rect x="3542.1" y="1008.3" width="150.27" height="561.84"/><path d="m4226.4 1570.1-534.06-553.48v-19.421l534.06-553.48h223.34l-534.06 563.19 534.06 563.19h-223.34"/><path d="m258.2 3333.3 1537.7-1537.7 1537.7 1537.7h-3075.4z"/><path d="m0.26 3333.3v-1507.9l1825.4-1825.4h1507.9l-3333.3 3333.3z"/><path d="m0.26 1567.5v-1567.5h1567.5l-1567.5 1567.5"/></g></svg>
