<svg xmlns="http://www.w3.org/2000/svg" width="100%" height="100%" viewBox="0 0 512 512" fill-rule="evenodd" stroke-linejoin="round" stroke-miterlimit="2" xmlns:v="https://vecta.io/nano"><path d="M288.923 273.699c-20.165 23.535-64.93 64.393-64.93 64.393s-1.954 1.911-5.017.367a14.66 14.66 0 0 1-1.75-1.451c-7.177-7.142-54.528-49.349-65.306-64.017-11.477-15.625-16.845-43.699-1.467-60.057 15.385-16.359 48.649-17.587 70.63 6.587 0 0 25.335-28.843 56.141-15.59s29.637 48.726 11.699 69.769zm91.196-83.781h-18.483v91.99c9.067.821 18.196.663 27.23-.47 17.366-5.632 33.332-17.834 33.332-48.81 0-12.672-4.497-21.846-10.103-28.365-7.97-9.259-19.755-14.345-31.975-14.345zm131.883 66.082c0 141.389-114.612 256.001-256.001 256.001S0 397.39 0 256.001 114.612 0 256.001 0s256.001 114.612 256.001 256.001zm-44.006-39.143c-5.393-28.475-20.727-46.216-36.438-57.19-16.247-11.341-35.712-17.169-55.526-17.169H94.78c-9.779 0-13.526 9.549-13.568 14.336l.017 3.123.418 190.883c2.654 39.202 41.89 39.22 41.958 39.22l189.902-.76c2.886.002 5.763-.342 8.567-1.023 35.046-8.773 38.673-41.328 38.297-59.478 70.443 3.917 120.141-45.79 107.623-111.94h.001z" fill="#fff" fill-rule="nonzero"/></svg>