<svg xmlns="http://www.w3.org/2000/svg" width="100%" height="100%" viewBox="0 0 1024 1024" fill-rule="evenodd" stroke-linejoin="round" stroke-miterlimit="2" xmlns:v="https://vecta.io/nano"><path d="M512 0c282.58 0 512 229.42 512 512s-229.42 512-512 512S0 794.58 0 512 229.42 0 512 0zm306.63 357.956c-7.36-27.538-29.044-49.22-56.58-56.58C712.134 288 512 288 512 288s-200.134 0-250.05 13.376c-27.53 7.36-49.22 29.042-56.58 56.58C192 407.866 192 512.004 192 512.004s0 104.134 13.37 154.04c7.36 27.538 29.05 49.228 56.58 56.586C311.866 736 512 736 512 736s200.134 0 250.05-13.37c27.536-7.358 49.22-29.048 56.58-56.586C832 616.138 832 512.004 832 512.004s0-104.138-13.37-154.048zm-370.632 250.05V416.002l166.274 96.002-166.274 96.002z" fill="#fff"/></svg>